<svg width="39" height="39" viewBox="0 0 39 39" fill="none" xmlns="http://www.w3.org/2000/svg">
<path d="M34.6315 12.9035C34.4056 12.676 34.1368 12.4955 33.8406 12.3726C33.5445 12.2497 33.2269 12.1868 32.9062 12.1875H28.0312V10.9688C28.0312 8.70612 27.1324 6.53616 25.5325 4.93625C23.9326 3.33633 21.7626 2.4375 19.5 2.4375C17.2374 2.4375 15.0674 3.33633 13.4675 4.93625C11.8676 6.53616 10.9688 8.70612 10.9688 10.9688V12.1875H6.09375C5.44728 12.1875 4.8273 12.4443 4.37018 12.9014C3.91306 13.3585 3.65625 13.9785 3.65625 14.625V31.0781C3.65625 34.0488 6.16992 36.5625 9.14062 36.5625H29.8594C31.2963 36.563 32.6764 36.0011 33.7045 34.9972C34.2219 34.5036 34.6339 33.9103 34.9156 33.2531C35.1974 32.5959 35.343 31.8884 35.3438 31.1733V14.625C35.3447 14.3052 35.2823 13.9884 35.1601 13.6929C35.0378 13.3974 34.8582 13.1291 34.6315 12.9035ZM13.4062 10.9688C13.4062 9.35259 14.0483 7.80262 15.1911 6.65982C16.3339 5.51702 17.8838 4.875 19.5 4.875C21.1162 4.875 22.6661 5.51702 23.8089 6.65982C24.9517 7.80262 25.5938 9.35259 25.5938 10.9688V12.1875H13.4062V10.9688Z" fill="#FDF8EB"/>
</svg>
