<svg width="20" height="19" viewBox="0 0 20 19" fill="none" xmlns="http://www.w3.org/2000/svg">
<path d="M19.4282 0.235853C19.3621 0.163727 19.282 0.105659 19.1927 0.0651568C19.1034 0.0246551 19.0068 0.00256106 18.9086 0.000209734C18.8105 -0.0021416 18.7129 0.0152986 18.6217 0.0514765C18.5305 0.0876544 18.4477 0.141819 18.3782 0.210697L17.8188 0.763685C17.751 0.831074 17.7129 0.922447 17.7129 1.01772C17.7129 1.11299 17.751 1.20436 17.8188 1.27175L18.3316 1.78027C18.3652 1.81382 18.4052 1.84044 18.4492 1.8586C18.4932 1.87677 18.5403 1.88612 18.588 1.88612C18.6356 1.88612 18.6828 1.87677 18.7268 1.8586C18.7708 1.84044 18.8108 1.81382 18.8444 1.78027L19.3898 1.2412C19.6656 0.96763 19.6914 0.522005 19.4282 0.235853ZM16.6878 1.88673L8.52421 9.98165C8.47472 10.0306 8.43874 10.0914 8.41975 10.1582L8.04214 11.2754C8.0331 11.3057 8.03246 11.3379 8.04029 11.3685C8.04812 11.3992 8.06413 11.4272 8.08664 11.4495C8.10915 11.4719 8.13731 11.4878 8.16816 11.4956C8.19901 11.5033 8.23141 11.5027 8.26192 11.4937L9.3857 11.1186C9.45292 11.0998 9.51413 11.064 9.56342 11.0149L17.7125 2.90466C17.7879 2.82897 17.8302 2.72679 17.8302 2.62031C17.8302 2.51383 17.7879 2.41164 17.7125 2.33595L17.2625 1.88673C17.1862 1.81116 17.0829 1.76872 16.9751 1.76872C16.8674 1.76872 16.764 1.81116 16.6878 1.88673Z" fill="#984EAE"/>
<path d="M16.0998 6.54332L10.5877 12.0296C10.3747 12.2418 10.1128 12.3992 9.82479 12.4883L8.65353 12.8778C8.37557 12.9557 8.0817 12.9587 7.8022 12.8863C7.52271 12.8139 7.2677 12.6688 7.06346 12.4659C6.85922 12.263 6.71313 12.0097 6.64025 11.732C6.56737 11.4544 6.57033 11.1625 6.64883 10.8864L7.04091 9.72289C7.13033 9.43688 7.28849 9.17678 7.50172 8.96506L13.0247 3.48863C13.0754 3.4384 13.1098 3.37438 13.1238 3.30467C13.1378 3.23497 13.1307 3.1627 13.1034 3.09702C13.076 3.03133 13.0297 2.97518 12.9702 2.93566C12.9107 2.89614 12.8408 2.87503 12.7692 2.875H3.33177C2.66012 2.875 2.01598 3.14004 1.54105 3.61181C1.06613 4.08358 0.799316 4.72344 0.799316 5.39062V16.1719C0.799316 16.8391 1.06613 17.4789 1.54105 17.9507C2.01598 18.4225 2.66012 18.6875 3.33177 18.6875H14.1851C14.8568 18.6875 15.5009 18.4225 15.9758 17.9507C16.4508 17.4789 16.7176 16.8391 16.7176 16.1719V6.79713C16.7176 6.72605 16.6963 6.65657 16.6565 6.59749C16.6167 6.53841 16.5602 6.49237 16.4941 6.46521C16.428 6.43804 16.3552 6.43096 16.285 6.44486C16.2149 6.45877 16.1504 6.49303 16.0998 6.54332Z" fill="#984EAE"/>
</svg>
