<svg width="30" height="34" viewBox="0 0 30 34" fill="none" xmlns="http://www.w3.org/2000/svg">
<path d="M8.70855 23.796L14.9999 30.5302L21.2993 23.796C16.0219 20.1997 14.5768 13.1099 18.0339 7.76685C16.0698 7.11083 13.9381 7.11083 11.966 7.76685C15.4071 13.0941 13.986 20.1602 8.74048 23.7723L8.70855 23.796ZM29.6266 0.00519173C29.8741 0.0526153 30.0338 0.281829 29.9939 0.526851C29.7943 1.60969 29.0278 2.50283 27.9819 2.87432C25.5867 3.72794 23.439 5.12694 21.6985 6.96065C27.1197 10.6202 28.5169 17.9392 24.8203 23.306C25.1237 23.5984 25.3871 23.9304 25.6107 24.2861C25.6426 24.3335 25.6745 24.3809 25.6985 24.4362C26.9999 26.6256 27.1356 29.313 26.0418 31.6209C25.427 32.9251 23.974 33.6364 22.5528 33.3282C22.449 33.3045 22.3612 33.2491 22.2973 33.1701C22.1376 32.9725 22.1696 32.6879 22.3692 32.5378C24.5089 30.8384 25.0278 27.827 23.5907 25.527C23.5029 25.3847 23.3991 25.2503 23.2873 25.1318L14.9999 34L6.71255 25.1318C6.60077 25.2583 6.50496 25.3847 6.41714 25.527C5.01196 27.7796 5.46704 30.7041 7.49498 32.4271C7.57482 32.4982 7.63071 32.5852 7.64668 32.6879C7.69458 32.933 7.52692 33.1701 7.27941 33.2096C5.85028 33.4704 4.42114 32.7117 3.84629 31.3838C2.84829 29.0679 3.04789 26.4201 4.3892 24.2782C4.61276 23.9225 4.87623 23.5905 5.17962 23.2981C1.48303 17.9392 2.88023 10.6202 8.30935 6.96065C6.56085 5.12694 4.41316 3.72794 2.01796 2.87432C0.972052 2.50283 0.205588 1.60969 0.005988 0.526851C-0.001996 0.471524 -0.001996 0.408292 0.005988 0.352965C0.061876 0.107943 0.301396 -0.0422319 0.5489 0.0130957C4.3892 0.850912 7.86225 2.88222 10.457 5.81458C13.3632 4.62899 16.6287 4.62899 19.5349 5.81458C22.1297 2.89013 25.6027 0.858816 29.443 0.0130957C29.5069 -0.0027122 29.5707 -0.0027122 29.6266 0.00519173ZM22.8482 21.986C25.8103 17.6942 24.6925 11.8374 20.3652 8.91292C20.3093 8.8734 20.2534 8.84179 20.1975 8.80227C17.2355 13.0941 18.3532 18.9509 22.6805 21.8754C22.7364 21.9149 22.7923 21.9465 22.8482 21.986ZM7.15167 21.986C11.5509 19.1485 12.7884 13.3154 9.92212 8.96825C9.8822 8.91292 9.85026 8.85759 9.81034 8.80227C5.41116 11.6398 4.17364 17.465 7.03989 21.82C7.07981 21.8754 7.11175 21.9307 7.15167 21.986Z" fill="#081733"/>
</svg>
