<svg width="32" height="34" viewBox="0 0 32 34" fill="none" xmlns="http://www.w3.org/2000/svg">
<path d="M9.26814 23.796L15.7508 30.5302L22.2418 23.796C16.8039 20.1997 15.3148 13.1099 18.877 7.76685C16.8532 7.11083 14.6567 7.11083 12.6247 7.76685C16.1704 13.0941 14.706 20.1602 9.30105 23.7723L9.26814 23.796ZM30.8223 0.00519173C31.0774 0.0526153 31.2419 0.281829 31.2008 0.526851C30.9951 1.60969 30.2053 2.50283 29.1276 2.87432C26.6596 3.72794 24.4466 5.12694 22.6531 6.96065C28.2391 10.6202 29.6788 17.9392 25.8698 23.306C26.1824 23.5984 26.4539 23.9304 26.6843 24.2861C26.7172 24.3335 26.7501 24.3809 26.7747 24.4362C28.1157 26.6256 28.2556 29.313 27.1285 31.6209C26.495 32.9251 24.9978 33.6364 23.5334 33.3282C23.4264 33.3045 23.3359 33.2491 23.2701 33.1701C23.1056 32.9725 23.1385 32.6879 23.3442 32.5378C25.549 30.8384 26.0837 27.827 24.6029 25.527C24.5124 25.3847 24.4054 25.2503 24.2903 25.1318L15.7508 34L7.21144 25.1318C7.09627 25.2583 6.99755 25.3847 6.90705 25.527C5.45914 27.7796 5.92806 30.7041 8.01767 32.4271C8.09994 32.4982 8.15752 32.5852 8.17398 32.6879C8.22334 32.933 8.05057 33.1701 7.79554 33.2096C6.32295 33.4704 4.85035 32.7117 4.25803 31.3838C3.22968 29.0679 3.43535 26.4201 4.81745 24.2782C5.0478 23.9225 5.31928 23.5905 5.6319 23.2981C1.8229 17.9392 3.26258 10.6202 8.8568 6.96065C7.05513 5.12694 4.84213 3.72794 2.37409 2.87432C1.29638 2.50283 0.506609 1.60969 0.300939 0.526851C0.292713 0.471524 0.292713 0.408292 0.300939 0.352965C0.358527 0.107943 0.605331 -0.0422319 0.860361 0.0130957C4.81745 0.850912 8.3961 2.88222 11.0698 5.81458C14.0644 4.62899 17.4291 4.62899 20.4237 5.81458C23.0974 2.89013 26.676 0.858816 30.6331 0.0130957C30.6989 -0.0027122 30.7647 -0.0027122 30.8223 0.00519173ZM23.8378 21.986C26.8899 17.6942 25.7382 11.8374 21.2793 8.91292C21.2217 8.8734 21.1641 8.84179 21.1065 8.80227C18.0544 13.0941 19.2061 18.9509 23.665 21.8754C23.7226 21.9149 23.7802 21.9465 23.8378 21.986ZM7.66392 21.986C12.1969 19.1485 13.472 13.3154 10.5186 8.96825C10.4775 8.91292 10.4446 8.85759 10.4034 8.80227C5.87048 11.6398 4.59532 17.465 7.54874 21.82C7.58987 21.8754 7.62278 21.9307 7.66392 21.986Z" fill="black"/>
</svg>
