<svg width="759" height="851" viewBox="0 0 759 851" fill="none" xmlns="http://www.w3.org/2000/svg">
<path d="M220.326 595.601L379.499 764.152L538.873 595.601C405.354 505.588 368.793 328.133 456.257 194.4C406.566 177.98 352.633 177.98 302.74 194.4C389.8 327.738 353.845 504.598 221.134 595.007L220.326 595.601ZM749.554 0.129946C755.816 1.31693 759.856 7.05402 758.846 13.1868C753.796 40.2896 734.404 62.6445 707.943 71.9425C647.344 93.3082 593.007 128.324 548.973 174.221C686.127 265.817 721.476 449.008 627.953 583.335C635.628 590.655 642.294 598.964 647.95 607.866C648.758 609.053 649.566 610.24 650.172 611.625C683.097 666.424 686.531 733.686 658.858 791.453C643.304 824.095 606.541 841.9 570.586 834.184C567.96 833.591 565.738 832.206 564.122 830.228C560.082 825.282 560.89 818.16 565.94 814.401C620.075 771.868 633.205 696.494 596.845 638.925C594.623 635.364 591.998 632.001 589.17 629.034L379.499 851L169.827 629.034C167 632.199 164.576 635.364 162.354 638.925C126.803 695.307 138.316 768.505 189.623 811.632C191.643 813.412 193.057 815.588 193.461 818.16C194.673 824.293 190.431 830.228 184.169 831.217C148.012 837.745 111.855 818.754 97.3112 785.518C72.0618 727.554 77.1117 661.28 111.047 607.668C116.703 598.766 123.369 590.457 131.044 583.137C37.5206 449.008 72.8698 265.817 210.227 174.221C165.99 128.324 111.653 93.3082 51.0543 71.9425C24.5929 62.6445 5.20138 40.2896 0.151496 13.1868C-0.0504988 11.802 -0.0504988 10.2193 0.151496 8.8345C1.56546 2.70175 7.62532 -1.05704 13.8872 0.327777C111.047 21.2978 198.915 72.1403 264.563 145.536C338.09 115.861 420.706 115.861 494.232 145.536C559.88 72.3382 647.748 21.4957 744.908 0.327777C746.524 -0.0678848 748.14 -0.0678848 749.554 0.129946ZM578.06 550.297C653 442.875 624.721 296.283 515.239 223.085C513.825 222.096 512.411 221.305 510.997 220.316C436.057 327.738 464.337 474.33 573.818 547.528C575.232 548.517 576.646 549.308 578.06 550.297ZM180.937 550.297C292.237 479.276 323.546 333.277 251.03 224.47C250.02 223.085 249.212 221.7 248.202 220.316C136.902 291.337 105.593 437.138 178.109 546.143C179.119 547.528 179.927 548.912 180.937 550.297Z" fill="#FDF8EB" fill-opacity="0.1"/>
</svg>
